<svg width="16.000000" height="11.000000" viewBox="0 0 16 11" fill="none" xmlns="http://www.w3.org/2000/svg" xmlns:xlink="http://www.w3.org/1999/xlink">
	<desc>
			Created with Pixso.
	</desc>
	<defs/>
	<path id="Vector" d="M8 -0.34C4.36 -0.34 1.25 1.92 0 5.12C1.25 8.31 4.36 10.57 8 10.57C11.63 10.57 14.74 8.31 16 5.12C14.74 1.92 11.63 -0.34 8 -0.34ZM8 8.75C5.99 8.75 4.36 7.12 4.36 5.12C4.36 3.11 5.99 1.48 8 1.48C10 1.48 11.63 3.11 11.63 5.12C11.63 7.12 10 8.75 8 8.75ZM8 2.93C6.79 2.93 5.81 3.91 5.81 5.12C5.81 6.32 6.79 7.3 8 7.3C9.2 7.3 10.18 6.32 10.18 5.12C10.18 3.91 9.2 2.93 8 2.93Z" fill="#4D4D4D" fill-opacity="1.000000" fill-rule="nonzero"/>
</svg>
